<?xml version="1.0" standalone="no"?>
<!DOCTYPE svg PUBLIC "-//W3C//DTD SVG 20010904//EN"
 "http://www.w3.org/TR/2001/REC-SVG-20010904/DTD/svg10.dtd">
<svg version="1.0" xmlns="http://www.w3.org/2000/svg"
 width="640.000000pt" height="641.000000pt" viewBox="0 0 640.000000 641.000000"
 preserveAspectRatio="xMidYMid meet">
<metadata>
Created by potrace 1.16, written by Peter Selinger 2001-2019
</metadata>
<g transform="translate(0.000000,641.000000) scale(0.100000,-0.100000)"
fill="#000000" stroke="none">
<path d="M3005 6203 c-528 -31 -1041 -199 -1475 -480 -626 -406 -1095 -1059
-1276 -1776 -74 -294 -99 -522 -91 -829 10 -404 86 -758 240 -1113 426 -986
1338 -1672 2393 -1801 187 -23 549 -23 741 -1 220 26 402 69 610 143 70 25
143 50 161 55 76 23 395 195 526 283 200 134 291 209 456 375 256 256 420 482
575 790 213 427 315 860 315 1346 0 313 -37 569 -125 864 -60 200 -95 289
-191 481 -447 893 -1300 1505 -2284 1639 -197 27 -393 35 -575 24z m336 -473
c346 -27 647 -109 944 -255 178 -88 259 -138 420 -259 411 -311 706 -724 875
-1226 87 -257 124 -492 124 -795 1 -358 -59 -665 -189 -975 -196 -467 -518
-857 -942 -1143 -443 -298 -1032 -456 -1554 -418 -499 36 -927 187 -1319 464
-158 111 -350 287 -477 437 -227 267 -420 646 -513 1004 -112 436 -103 929 26
1353 38 127 115 323 168 430 97 198 263 427 439 609 477 494 1101 764 1808
783 30 0 116 -4 190 -9z"/>
<path d="M2977 5353 c-79 -71 -248 -220 -377 -333 -128 -113 -238 -210 -244
-215 -19 -18 -346 -304 -484 -425 -73 -63 -132 -122 -132 -131 0 -16 126 -139
142 -139 5 0 25 16 47 35 21 19 43 35 48 35 5 0 28 -102 50 -227 23 -126 63
-343 89 -484 49 -267 52 -329 16 -329 -21 1 -56 28 -71 57 -17 34 -13 84 15
163 28 82 27 121 -7 164 -30 38 -95 37 -131 -1 -69 -74 -100 -232 -68 -342 28
-97 110 -163 227 -183 68 -11 77 -15 99 -47 13 -19 21 -37 19 -41 -3 -4 -59
-9 -125 -12 -117 -5 -141 -10 -126 -25 11 -12 2378 -15 2396 -3 22 14 8 21
-54 27 -31 3 -56 7 -56 9 0 2 15 24 32 49 28 40 33 56 36 119 3 58 0 83 -16
119 -32 73 -91 73 -113 -1 -12 -42 -55 -105 -45 -67 3 11 12 65 21 120 8 55
29 170 45 255 16 85 50 262 74 394 25 131 47 241 50 243 3 3 28 -15 57 -41 43
-39 54 -44 67 -34 19 16 112 139 112 148 0 13 -42 53 -205 194 -147 128 -212
185 -365 321 -31 28 -184 163 -340 300 -156 138 -336 296 -399 353 -64 56
-121 102 -128 102 -7 0 -77 -57 -156 -127z m333 -67 c180 -160 472 -418 505
-447 17 -14 108 -96 204 -180 95 -85 187 -165 204 -179 105 -87 297 -264 297
-273 -1 -7 -19 -32 -41 -56 l-40 -44 -32 29 c-17 16 -39 36 -48 44 -23 22
-206 183 -294 259 -36 31 -193 171 -250 222 -22 20 -56 50 -75 65 -19 16 -42
36 -50 44 -26 25 -152 135 -190 166 -19 16 -44 38 -55 50 -11 11 -54 49 -95
84 -41 35 -77 67 -80 70 -24 27 -131 111 -138 109 -5 -2 -43 -34 -83 -70 -123
-110 -585 -516 -743 -654 -83 -72 -209 -183 -282 -247 -73 -65 -137 -118 -141
-118 -5 0 -29 21 -53 46 -43 43 -44 46 -26 59 10 8 39 33 65 57 25 24 71 63
101 88 30 25 57 47 60 50 3 3 41 36 85 75 44 38 85 74 91 80 42 38 157 140
199 175 28 24 86 76 130 115 44 40 143 128 220 195 235 206 277 243 329 292
l50 46 31 -25 c16 -14 82 -71 145 -127z m-101 -667 c94 -16 200 -68 266 -130
30 -28 55 -55 55 -60 0 -4 -17 -1 -37 6 -21 8 -64 19 -95 25 -41 8 -59 17 -63
30 -3 10 -23 34 -45 54 -43 39 -99 54 -140 39 -20 -7 -32 -7 -45 3 -22 16 -73
18 -109 5 -13 -6 -40 -31 -58 -56 -18 -26 -61 -78 -95 -117 -55 -62 -102 -139
-117 -190 -4 -14 -16 -18 -51 -18 -44 0 -45 1 -39 27 45 178 232 353 409 382
72 12 91 12 164 0z m-135 -65 c25 -10 19 -21 -23 -45 -47 -26 -96 -112 -86
-151 6 -22 2 -26 -33 -36 -22 -7 -42 -12 -45 -12 -11 0 21 89 48 137 53 91 95
124 139 107z m170 -29 c12 -8 37 -35 55 -60 27 -37 38 -45 65 -45 105 0 320
-89 408 -168 21 -19 33 -23 55 -18 52 13 77 7 107 -26 28 -31 29 -32 23 -127
-3 -53 -7 -102 -9 -110 -1 -7 2 -15 9 -18 13 -5 43 116 43 176 0 32 3 39 15
34 26 -9 45 -59 45 -113 0 -92 -60 -234 -124 -292 -51 -47 -70 -38 -113 54
-26 57 -35 181 -20 271 8 44 7 47 -13 47 -78 0 -133 -99 -123 -222 5 -60 24
-96 82 -153 43 -41 49 -64 35 -135 -9 -41 -63 -94 -113 -109 -151 -45 -414
-10 -552 74 l-46 28 25 38 c26 39 45 48 58 28 3 -6 20 -9 37 -6 25 3 38 -2 60
-24 28 -28 58 -36 91 -23 27 10 17 24 -13 18 -21 -5 -34 -1 -50 15 -32 32 -27
51 15 51 32 0 35 2 32 27 -5 46 -79 84 -114 59 -18 -14 -18 -17 -3 -45 19 -33
10 -51 -27 -51 -24 0 -49 24 -40 38 3 5 6 39 7 75 1 63 3 66 29 72 77 17 116
139 57 180 -34 24 -57 18 -98 -25 -37 -39 -39 -39 -49 -19 -6 11 -11 53 -12
92 0 77 27 164 63 203 19 20 25 44 12 44 -5 -1 -32 -20 -62 -45 l-54 -43 -19
23 c-19 24 -24 45 -10 45 4 0 20 25 36 55 43 83 105 145 145 145 17 0 42 -7
55 -15z m-574 -360 c104 -1 135 -5 182 -24 76 -30 142 -76 191 -134 39 -45 40
-48 23 -66 -21 -23 -13 -49 9 -31 8 7 19 9 25 5 18 -11 11 -35 -15 -45 -35
-13 -32 -33 5 -28 23 4 30 1 30 -13 0 -9 -9 -19 -20 -22 -23 -6 -27 -27 -5
-27 20 0 19 -13 -4 -58 -26 -51 -65 -85 -136 -120 -84 -41 -157 -55 -261 -50
-75 3 -98 9 -143 33 -58 32 -106 84 -141 154 -19 38 -22 56 -18 121 5 84 39
173 63 164 22 -9 28 16 8 38 -25 29 -114 85 -149 95 l-29 7 35 8 c19 3 78 4
130 1 52 -4 151 -7 220 -8z m267 -672 c21 -103 -2 -245 -53 -329 -25 -41 -81
-104 -92 -104 -10 0 -27 81 -37 178 -7 60 -16 79 -33 68 -5 -3 1 -73 13 -157
21 -141 24 -154 49 -171 25 -19 34 -47 19 -61 -3 -4 -13 -1 -21 6 -12 9 -16 9
-19 0 -6 -17 -30 -16 -36 1 -4 9 -14 12 -26 9 -31 -8 -47 30 -76 182 -15 77
-28 146 -30 152 -6 17 -62 -16 -69 -39 -8 -32 -34 -9 -39 35 -4 39 -2 45 37
79 36 32 41 41 40 77 -2 46 -16 40 150 61 49 6 112 20 140 30 71 25 74 25 83
-17z m-897 7 c28 -28 26 -85 -5 -154 -30 -68 -32 -119 -5 -171 11 -22 20 -41
20 -42 0 -5 -48 5 -60 12 -18 11 -50 83 -50 114 0 16 -9 46 -21 65 -21 36 -21
37 -2 88 20 56 62 108 87 108 9 0 25 -9 36 -20z m1090 -26 c55 -18 433 -26
501 -10 50 11 64 11 111 -4 116 -36 217 -122 266 -228 24 -51 27 -68 27 -173
0 -84 -4 -121 -14 -132 -12 -15 -38 -17 -183 -17 -162 0 -170 1 -165 19 9 37
-9 44 -32 12 -19 -26 -26 -29 -42 -21 -10 6 -19 20 -19 32 0 15 -5 19 -20 15
-37 -9 -23 29 16 48 39 18 118 15 138 -5 13 -13 46 -13 46 0 0 12 -42 34 -97
50 -35 11 -44 19 -54 48 -30 90 38 223 122 236 66 10 48 30 -21 23 -113 -12
-171 -64 -197 -175 -10 -40 -22 -71 -28 -69 -5 2 -9 14 -7 25 6 41 -14 22 -46
-43 -45 -92 -130 -181 -189 -199 -20 -7 -23 -4 -23 23 0 36 -4 38 -32 11 -28
-26 -58 -26 -58 -1 0 11 -6 21 -12 24 -9 3 -5 14 13 33 44 51 75 97 112 170
40 81 43 99 32 167 -10 61 -30 61 -49 -1 -16 -57 -63 -152 -74 -152 -16 0
-101 98 -130 150 -31 56 -49 131 -37 150 9 14 97 10 145 -6z m1135 -287 c21
-33 29 -105 16 -153 -16 -58 -88 -124 -136 -124 -37 0 -49 15 -14 17 19 2 56
39 71 72 4 9 7 40 7 68 1 58 21 143 33 143 4 0 14 -10 23 -23z m-1825 -12 c38
-20 60 -63 67 -131 5 -48 9 -56 39 -73 34 -20 44 -44 23 -56 -6 -4 -16 1 -24
11 -13 18 -14 18 -20 2 -8 -19 -35 -25 -35 -8 0 14 -28 12 -32 -2 -4 -11 -91
-13 -128 -3 -8 3 -30 32 -49 65 -29 53 -32 67 -26 108 3 26 16 60 28 75 19 23
30 27 75 27 29 0 66 -7 82 -15z"/>
<path d="M2581 3919 c-20 -19 -22 -29 -18 -68 12 -109 147 -126 147 -18 0 40
-27 86 -56 97 -37 14 -48 13 -73 -11z"/>
<path d="M2796 3851 c-16 -18 -16 -20 5 -40 18 -17 20 -23 9 -36 -14 -17 -56
-20 -65 -5 -8 13 -25 13 -25 -1 0 -14 68 -82 98 -98 29 -16 68 6 83 47 6 15
17 35 26 44 8 10 13 25 9 33 -5 15 -9 14 -33 -5 -31 -24 -47 -11 -31 26 22 47
-40 75 -76 35z"/>
<path d="M2790 2773 c-8 -3 -27 -17 -42 -31 -45 -42 -50 -94 -46 -505 5 -506
-11 -477 268 -477 l182 0 28 28 c48 49 51 79 48 505 -4 516 11 488 -260 486
-90 0 -170 -3 -178 -6z m223 -245 c16 -12 17 -37 15 -268 l-3 -255 -60 0 -60
0 -3 240 c-1 132 0 250 3 262 7 31 75 44 108 21z"/>
<path d="M1703 2760 c-12 -5 -24 -17 -27 -27 -6 -21 -112 -607 -121 -673 -4
-25 -16 -94 -27 -153 -11 -60 -17 -115 -14 -123 7 -19 181 -21 192 -2 5 7 13
44 18 83 l11 70 70 0 70 0 10 -70 c6 -38 14 -76 18 -82 10 -16 183 -18 192 -3
6 10 -6 82 -106 640 -23 129 -45 255 -49 279 -4 25 -16 50 -26 58 -20 15 -175
17 -211 3z"/>
<path d="M2138 2763 c-10 -2 -21 -15 -24 -28 -8 -31 3 -942 11 -955 4 -6 84
-10 211 -10 228 0 250 5 281 63 16 29 18 69 18 437 0 371 -2 408 -18 433 -38
58 -53 62 -267 64 -107 1 -203 -1 -212 -4z m297 -265 c3 -13 4 -126 3 -253
l-3 -230 -62 -3 -63 -3 0 249 c0 137 3 252 7 255 3 4 30 7 59 7 47 0 54 -3 59
-22z"/>
<path d="M3316 2754 c-14 -14 -16 -71 -16 -483 0 -362 3 -471 13 -485 10 -14
26 -16 97 -14 l85 3 3 133 3 132 97 1 c125 0 159 12 186 64 18 36 21 62 24
243 4 191 5 202 21 188 12 -11 38 -16 79 -16 l62 0 2 -372 3 -373 93 -3 92 -3
0 158 c0 87 3 256 7 376 l6 217 63 0 c79 0 84 7 84 129 0 68 -4 93 -16 105
-13 13 -44 16 -197 15 -100 0 -204 -4 -232 -7 l-50 -7 -5 -70 c-5 -72 -13 -77
-24 -14 -8 45 -42 78 -93 90 -21 5 -113 9 -205 9 -138 0 -169 -3 -182 -16z
m288 -250 c8 -20 8 -172 0 -202 -6 -20 -12 -23 -53 -20 l-46 3 -3 104 c-1 58
0 111 2 118 8 20 92 17 100 -3z"/>
<path d="M4468 2763 c-22 -6 -28 -29 -78 -313 -22 -129 -56 -321 -75 -427 -19
-106 -35 -206 -35 -223 l0 -31 97 3 c110 3 105 -1 118 111 l6 57 69 0 c73 0
79 -5 80 -70 0 -14 5 -42 11 -62 l10 -38 93 0 c73 0 95 3 99 15 3 8 -7 85 -23
172 -80 433 -130 721 -130 746 0 51 -27 65 -131 65 -52 0 -102 -2 -111 -5z"/>
<path d="M2416 1391 c-4 -5 -3 -16 0 -25 6 -15 80 -16 788 -14 773 3 781 3
781 23 0 20 -8 20 -782 23 -465 1 -784 -2 -787 -7z"/>
</g>
</svg>
